<svg aria-hidden="true" style="position: absolute; width: 0; height: 0; overflow: hidden;" version="1.1" xmlns="http://www.w3.org/2000/svg" xmlns:xlink="http://www.w3.org/1999/xlink">
<defs>
<symbol id="icon-moon" viewBox="0 0 32 32">
<path  d="M28.090 15.809v0zM16.191 3.91v0zM28.333 16c0 6.811-5.522 12.333-12.333 12.333v2c7.916 0 14.333-6.417 14.333-14.333h-2zM16 28.333c-6.811 0-12.333-5.522-12.333-12.333h-2c0 7.916 6.417 14.333 14.333 14.333v-2zM3.667 16c0-6.811 5.522-12.333 12.333-12.333v-2c-7.916 0-14.333 6.417-14.333 14.333h2zM20.667 19c-4.234 0-7.667-3.433-7.667-7.667h-2c0 5.339 4.328 9.667 9.667 9.667v-2zM27.234 15.292c-1.344 2.224-3.783 3.708-6.567 3.708v2c3.513 0 6.588-1.875 8.279-4.674l-1.712-1.034zM13 11.333c0-2.784 1.484-5.223 3.708-6.567l-1.034-1.712c-2.799 1.691-4.674 4.766-4.674 8.279h2zM16 3.667c-0.118 0-0.256-0.053-0.357-0.158-0.085-0.089-0.105-0.172-0.109-0.206-0.006-0.042-0.003-0.162 0.14-0.248l1.034 1.712c0.671-0.405 0.887-1.148 0.808-1.731-0.082-0.607-0.56-1.368-1.516-1.368v2zM28.946 16.326c-0.086 0.143-0.207 0.146-0.248 0.14-0.034-0.005-0.118-0.024-0.206-0.109-0.105-0.1-0.158-0.239-0.158-0.357h2c0-0.955-0.762-1.434-1.368-1.516-0.584-0.079-1.326 0.137-1.731 0.808l1.712 1.034z"></path>
</symbol>
<symbol id="icon-sun" viewBox="0 0 32 32">
<path d="M16 26c1.105 0 2 0.895 2 2v2c0 1.105-0.895 2-2 2s-2-0.895-2-2v-2c0-1.105 0.895-2 2-2zM16 6c-1.105 0-2-0.895-2-2v-2c0-1.105 0.895-2 2-2s2 0.895 2 2v2c0 1.105-0.895 2-2 2zM30 14c1.105 0 2 0.895 2 2s-0.895 2-2 2h-2c-1.105 0-2-0.895-2-2s0.895-2 2-2h2zM6 16c0 1.105-0.895 2-2 2h-2c-1.105 0-2-0.895-2-2s0.895-2 2-2h2c1.105 0 2 0.895 2 2zM25.899 23.071l1.414 1.414c0.781 0.781 0.781 2.047 0 2.828s-2.047 0.781-2.828 0l-1.414-1.414c-0.781-0.781-0.781-2.047 0-2.828s2.047-0.781 2.828 0zM6.101 8.929l-1.414-1.414c-0.781-0.781-0.781-2.047 0-2.828s2.047-0.781 2.828 0l1.414 1.414c0.781 0.781 0.781 2.047 0 2.828s-2.047 0.781-2.828 0zM25.899 8.929c-0.781 0.781-2.047 0.781-2.828 0s-0.781-2.047 0-2.828l1.414-1.414c0.781-0.781 2.047-0.781 2.828 0s0.781 2.047 0 2.828l-1.414 1.414zM6.101 23.071c0.781-0.781 2.047-0.781 2.828 0s0.781 2.047 0 2.828l-1.414 1.414c-0.781 0.781-2.047 0.781-2.828 0s-0.781-2.047 0-2.828l1.414-1.414z"></path>
<path d="M16 8c-4.418 0-8 3.582-8 8s3.582 8 8 8c4.418 0 8-3.582 8-8s-3.582-8-8-8zM16 21c-2.761 0-5-2.239-5-5s2.239-5 5-5 5 2.239 5 5-2.239 5-5 5z"></path>
</symbol>
</defs>
</svg>
